<svg xmlns="http://www.w3.org/2000/svg" xmlns:xlink="http://www.w3.org/1999/xlink" width="25.309" height="19.998" viewBox="0 0 25.309 19.998">
    <defs>
        <clipPath id="clip-path">
            <rect id="사각형_224" data-name="사각형 224" width="25.309" height="19.998" fill="none"/>
        </clipPath>
    </defs>
    <g id="그룹_574" data-name="그룹 574" transform="translate(0 0)" opacity="0.997">
        <g id="그룹_573" data-name="그룹 573" transform="translate(0 0)" clip-path="url(#clip-path)">
            <path id="패스_109" data-name="패스 109" d="M24.241,27.606a.921.921,0,0,1,0-1.842l4.747-.006h0a.921.921,0,0,1,0,1.842l-4.747.006Z" transform="translate(-9 -9.941)" fill="#fff"/>
            <path id="패스_110" data-name="패스 110" d="M8.115,27.625a.921.921,0,0,1,0-1.842l4.747-.007h0a.921.921,0,0,1,0,1.842l-4.747.007Z" transform="translate(-2.776 -9.948)" fill="#fff"/>
            <path id="사각형_223" data-name="사각형 223" d="M.921,0h0a.921.921,0,0,1,.921.921v6.8a.921.921,0,0,1-.921.921h0A.921.921,0,0,1,0,7.719V.921A.921.921,0,0,1,.921,0Z" transform="translate(11.64 6.807)" fill="#fff"/>
            <path id="패스_111" data-name="패스 111" d="M18.519,28.775a3,3,0,0,1,0-6.006h0a3,3,0,0,1,0,6.006Zm0-4.163h0a1.161,1.161,0,0,0,0,2.321h0a1.161,1.161,0,1,0,0-2.321" transform="translate(-5.988 -8.787)" fill="#fff"/>
            <path id="패스_112" data-name="패스 112" d="M3,28.792a3,3,0,0,1,0-6.006H3a3,3,0,0,1,0,6.006Zm0-4.163H3a1.161,1.161,0,0,0,0,2.321H3a1.161,1.161,0,0,0,0-2.321" transform="translate(0 -8.794)" fill="#fff"/>
            <path id="패스_113" data-name="패스 113" d="M34.437,28.756a3,3,0,0,1,0-6.006h0a3,3,0,0,1,0,6.006Zm0-4.164h0a1.161,1.161,0,0,0,0,2.322h0a1.161,1.161,0,0,0,0-2.322" transform="translate(-12.131 -8.78)" fill="#fff"/>
            <path id="패스_114" data-name="패스 114" d="M19.7,8.392H11.1A4,4,0,0,1,7.107,4.4V3.992A4,4,0,0,1,11.1,0h8.6a4,4,0,0,1,3.992,3.992V4.4A4,4,0,0,1,19.7,8.392m-8.6-6.55A2.152,2.152,0,0,0,8.949,3.992V4.4A2.152,2.152,0,0,0,11.1,6.55h8.6A2.152,2.152,0,0,0,21.845,4.4V3.992A2.152,2.152,0,0,0,19.7,1.842Z" transform="translate(-2.743 0)" fill="#fff"/>
        </g>
    </g>
</svg>
