<svg xmlns="http://www.w3.org/2000/svg" width="15.266" height="14.728" viewBox="0 0 15.266 14.728">
    <g id="그룹_711" data-name="그룹 711" transform="translate(290 -2434.297)">
        <path id="패스_219" data-name="패스 219" d="M14.191,16.244c-.072-.144-.072-.287-.144-.359a5.182,5.182,0,0,0-1.365-1.724A6.643,6.643,0,0,0,10.6,12.94a6.626,6.626,0,0,0-2.586-.5,7.4,7.4,0,0,0-2.515.431,6.643,6.643,0,0,0-2.083,1.221A5.182,5.182,0,0,0,2.05,15.813a1.214,1.214,0,0,0-.144.359.607.607,0,0,0,.431.144H13.832A.316.316,0,0,0,14.191,16.244Zm1.365-.5c.431,1.149-.575,2.083-1.8,2.083H2.266a1.681,1.681,0,0,1-1.8-2.083c.072-.144.144-.359.216-.5a7.43,7.43,0,0,1,1.724-2.227A7.672,7.672,0,0,1,5,11.5,8.588,8.588,0,0,1,8.013,11a8.588,8.588,0,0,1,3.017.5,9.381,9.381,0,0,1,2.586,1.509,7.43,7.43,0,0,1,1.724,2.227A3.5,3.5,0,0,1,15.556,15.742Z" transform="translate(-290.392 2431.199)" fill="currentColor" fill-rule="evenodd"/>
        <path id="패스_220" data-name="패스 220" d="M9.592,0A3.557,3.557,0,0,0,6,3.592a3.592,3.592,0,0,0,7.184,0A3.557,3.557,0,0,0,9.592,0Zm0,5.747A2.117,2.117,0,0,1,7.437,3.592a2.155,2.155,0,0,1,4.311,0A2.117,2.117,0,0,1,9.592,5.747Z" transform="translate(-291.971 2434.297)" fill="currentColor"/>
    </g>
</svg>
