<svg xmlns="http://www.w3.org/2000/svg" xmlns:xlink="http://www.w3.org/1999/xlink" width="25.307" height="17.37" viewBox="0 0 25.307 17.37">
  <defs>
    <clipPath id="clip-path">
      <rect id="사각형_225" data-name="사각형 225" width="25.307" height="17.37" fill="none"/>
    </clipPath>
  </defs>
  <g id="그룹_576" data-name="그룹 576" transform="translate(0 0)" opacity="0.997">
    <g id="그룹_575" data-name="그룹 575" transform="translate(0 0)" clip-path="url(#clip-path)">
      <path id="패스_115" data-name="패스 115" d="M35.025,21.866A1.026,1.026,0,0,1,34,20.84V15.253a1.026,1.026,0,0,1,2.052,0V20.84a1.026,1.026,0,0,1-1.026,1.026" transform="translate(-10.744 -4.495)" fill="#fff"/>
      <path id="패스_116" data-name="패스 116" d="M9.526,21.866A1.026,1.026,0,0,1,8.5,20.84V15.253a1.026,1.026,0,0,1,2.052,0V20.84a1.026,1.026,0,0,1-1.026,1.026" transform="translate(-2.686 -4.495)" fill="#fff"/>
      <path id="패스_117" data-name="패스 117" d="M26.525,19.953A1.026,1.026,0,0,1,25.5,18.927V9.2a1.026,1.026,0,1,1,2.052,0v9.727a1.026,1.026,0,0,1-1.026,1.026" transform="translate(-8.058 -2.583)" fill="#fff"/>
      <path id="패스_118" data-name="패스 118" d="M18.025,17.37A1.026,1.026,0,0,1,17,16.344V1.026a1.026,1.026,0,0,1,2.052,0V16.344a1.026,1.026,0,0,1-1.026,1.026" transform="translate(-5.372 0)" fill="#fff"/>
      <path id="패스_119" data-name="패스 119" d="M1.026,20.2A1.026,1.026,0,0,1,0,19.175V9.983a1.026,1.026,0,0,1,2.052,0v9.192A1.026,1.026,0,0,1,1.026,20.2" transform="translate(0 -2.83)" fill="#fff"/>
    </g>
  </g>
</svg>
