<svg xmlns="http://www.w3.org/2000/svg" xmlns:xlink="http://www.w3.org/1999/xlink" width="16.369" height="14.466" viewBox="0 0 16.369 14.466">
    <defs>
        <clipPath id="clip-path">
            <rect id="사각형_229" data-name="사각형 229" width="16.369" height="14.466" fill="#fff"/>
        </clipPath>
    </defs>
    <g id="그룹_992" data-name="그룹 992" transform="translate(0 0)" style="isolation: isolate">
        <g id="그룹_586" data-name="그룹 586" transform="translate(0 0)" clip-path="url(#clip-path)">
            <path id="패스_125" data-name="패스 125" d="M12.863,29.657A7.568,7.568,0,0,1,7.6,27.543a6.409,6.409,0,0,0-5.658-1.677L.68,26.1a.574.574,0,0,1-.213-1.128l1.263-.238A7.562,7.562,0,0,1,8.4,26.72a6.434,6.434,0,0,0,5.437,1.715l1.87-.286a.574.574,0,0,1,.173,1.135l-1.87.286a7.593,7.593,0,0,1-1.149.087" transform="translate(0 -15.19)" fill="#fff"/>
            <path id="패스_126" data-name="패스 126" d="M12.863,17.355A7.566,7.566,0,0,1,7.6,15.242a6.409,6.409,0,0,0-5.658-1.677L.68,13.8a.574.574,0,0,1-.213-1.128l1.263-.238A7.564,7.564,0,0,1,8.4,14.418a6.432,6.432,0,0,0,5.437,1.715l1.87-.286a.574.574,0,0,1,.173,1.135l-1.87.286a7.6,7.6,0,0,1-1.149.087" transform="translate(0 -7.596)" fill="#fff"/>
            <path id="패스_127" data-name="패스 127" d="M12.863,5.051A7.566,7.566,0,0,1,7.6,2.938,6.411,6.411,0,0,0,1.943,1.261L.68,1.5A.574.574,0,0,1,.467.371L1.73.133A7.561,7.561,0,0,1,8.4,2.115a6.432,6.432,0,0,0,5.437,1.715l1.87-.286a.574.574,0,1,1,.173,1.135l-1.87.286a7.6,7.6,0,0,1-1.149.087" transform="translate(0 0)" fill="#fff"/>
        </g>
    </g>
</svg>
