<svg xmlns="http://www.w3.org/2000/svg" xmlns:xlink="http://www.w3.org/1999/xlink" width="15.828" height="16.758" viewBox="0 0 15.828 16.758">
    <defs>
        <clipPath id="clip-path">
            <rect id="사각형_232" data-name="사각형 232" width="15.828" height="16.758" fill="#fff"/>
        </clipPath>
    </defs>
    <g id="그룹_995" data-name="그룹 995" transform="translate(0 0)" style="isolation: isolate">
        <g id="그룹_593" data-name="그룹 593" transform="translate(0 0)" clip-path="url(#clip-path)">
            <path id="패스_137" data-name="패스 137" d="M6.349,10.945A4.564,4.564,0,0,1,3.1,9.6a.6.6,0,0,1,0-.849L8.749,3.1a.6.6,0,0,1,.849,0,4.6,4.6,0,0,1-3.25,7.846M4.411,9.137A3.4,3.4,0,0,0,9.137,4.411Z" transform="translate(-1.753 -1.753)" fill="#fff"/>
            <path id="패스_138" data-name="패스 138" d="M1.771,8.022a.6.6,0,0,1-.425-.176,4.6,4.6,0,1,1,6.5-6.5.6.6,0,0,1,0,.85L2.2,7.846a.6.6,0,0,1-.425.176M4.6,1.2A3.4,3.4,0,0,0,1.808,6.535L6.535,1.808A3.371,3.371,0,0,0,4.6,1.2m-2.825.57h0Z" transform="translate(0 0)" fill="#fff"/>
            <path id="패스_139" data-name="패스 139" d="M22.926,29.837a4.564,4.564,0,0,1-3.25-1.347.6.6,0,0,1,0-.849l5.65-5.65a.6.6,0,0,1,.849,0,4.6,4.6,0,0,1-3.25,7.846m-1.939-1.808A3.4,3.4,0,0,0,25.714,23.3Z" transform="translate(-11.692 -13.079)" fill="#fff"/>
            <path id="패스_140" data-name="패스 140" d="M18.352,26.915a.6.6,0,0,1-.425-.176,4.6,4.6,0,1,1,6.5-6.5.6.6,0,0,1,0,.85l-5.65,5.65a.6.6,0,0,1-.425.176m2.825-6.82a3.4,3.4,0,0,0-2.788,5.333L23.116,20.7a3.371,3.371,0,0,0-1.939-.607m-2.825.57h0Z" transform="translate(-9.943 -11.327)" fill="#fff"/>
        </g>
    </g>
</svg>
