<svg xmlns="http://www.w3.org/2000/svg" xmlns:xlink="http://www.w3.org/1999/xlink" width="13.641" height="17.613" viewBox="0 0 13.641 17.613">
    <defs>
        <clipPath id="clip-path">
            <rect id="사각형_228" data-name="사각형 228" width="13.641" height="17.613" fill="#fff"/>
        </clipPath>
    </defs>
    <g id="그룹_988" data-name="그룹 988" transform="translate(0 0)">
        <g id="그룹_584" data-name="그룹 584" transform="translate(0 0)" clip-path="url(#clip-path)" style="isolation: isolate">
            <path id="패스_124" data-name="패스 124" d="M6.82,17.614A6.839,6.839,0,0,1,0,10.772c0-.207.01-.415.03-.637A6.828,6.828,0,0,1,1.872,6.067L6.052.26A.624.624,0,0,1,7.044.232l4.677,5.782a6.888,6.888,0,0,1,.774.96,6.767,6.767,0,0,1,1.07,2.775,6.968,6.968,0,0,1,.076,1.022A6.839,6.839,0,0,1,6.82,17.614M6.587,1.658,2.86,6.836A.548.548,0,0,1,2.8,6.9a5.576,5.576,0,0,0-1.528,3.346c-.016.172-.025.346-.025.523a5.57,5.57,0,1,0,11.141,0,5.707,5.707,0,0,0-.063-.836,5.528,5.528,0,0,0-.873-2.264,5.668,5.668,0,0,0-.649-.8c-.013-.014-.026-.028-.038-.043Z" transform="translate(0 0)" fill="#fff"/>
        </g>
    </g>
</svg>
