<svg xmlns="http://www.w3.org/2000/svg" xmlns:xlink="http://www.w3.org/1999/xlink" width="17" height="17" viewBox="0 0 17 17">
    <defs>
        <clipPath id="clip-path">
            <rect id="사각형_231" data-name="사각형 231" width="17" height="17" fill="#fff"/>
        </clipPath>
    </defs>
    <g id="그룹_994" data-name="그룹 994" style="isolation: isolate">
        <g id="그룹_591" data-name="그룹 591" clip-path="url(#clip-path)">
            <path id="패스_135" data-name="패스 135" d="M9.743,16.62H5.43a.646.646,0,0,1,0-1.291H9.3l1.256-3.291a.868.868,0,0,1,.735-.626.9.9,0,0,1,.859.524l1.368,2.518a.576.576,0,0,0,.346.139h2.9a.646.646,0,0,1,0,1.291h-2.9a1.75,1.75,0,0,1-1.48-.813l-.942-1.733L10.346,16.2a.645.645,0,0,1-.6.415m2.028-4.15v0" transform="translate(-2.725 -6.498)" fill="#fff"/>
            <path id="패스_136" data-name="패스 136" d="M14.2,17H2.8A2.8,2.8,0,0,1,0,14.2V2.8A2.8,2.8,0,0,1,2.8,0H14.2A2.8,2.8,0,0,1,17,2.8V14.2A2.8,2.8,0,0,1,14.2,17M2.8,1.291A1.508,1.508,0,0,0,1.291,2.8V14.2A1.508,1.508,0,0,0,2.8,15.709H14.2A1.508,1.508,0,0,0,15.709,14.2V2.8A1.508,1.508,0,0,0,14.2,1.291Z" fill="#fff"/>
        </g>
    </g>
</svg>
