<svg xmlns="http://www.w3.org/2000/svg" xmlns:xlink="http://www.w3.org/1999/xlink" width="12.263" height="19.363" viewBox="0 0 12.263 19.363">
    <defs>
        <clipPath id="clip-path">
            <rect id="사각형_233" data-name="사각형 233" width="12.263" height="19.363" fill="#fff"/>
        </clipPath>
    </defs>
    <g id="그룹_987" data-name="그룹 987" style="isolation: isolate">
        <g id="그룹_661" data-name="그룹 661" clip-path="url(#clip-path)">
            <path id="패스_141" data-name="패스 141" d="M6.131,19.363A6.128,6.128,0,0,1,1.893,8.806V4.238a4.239,4.239,0,0,1,8.477,0V8.806A6.128,6.128,0,0,1,6.131,19.363m0-17.941A2.821,2.821,0,0,0,3.314,4.238V9.121a.712.712,0,0,1-.248.539,4.71,4.71,0,1,0,6.13,0,.711.711,0,0,1-.247-.539V4.238A2.821,2.821,0,0,0,6.131,1.421" fill="#fff"/>
            <path id="패스_142" data-name="패스 142" d="M12.153,16.812a.711.711,0,0,1-.711-.711V10.883a.711.711,0,0,1,1.421,0V16.1a.711.711,0,0,1-.711.711" transform="translate(-6.022 -5.353)" fill="#fff"/>
            <path id="패스_143" data-name="패스 143" d="M10.075,27.345a2.581,2.581,0,1,1,2.581-2.581,2.584,2.584,0,0,1-2.581,2.581m0-3.741a1.16,1.16,0,1,0,1.16,1.16,1.161,1.161,0,0,0-1.16-1.16" transform="translate(-3.944 -11.674)" fill="#fff"/>
        </g>
    </g>
</svg>
